/* XPM */
static char *_64f87c84a2c4519fc572d252e04da1e[] = {
/* columns rows colors chars-per-pixel */
"16 16 71 1 ",
"  c #270000",
". c #3F0001",
"X c #3D0800",
"o c #390F00",
"O c #380A0C",
"+ c #4B0400",
"@ c #580000",
"# c #57030F",
"$ c #670000",
"% c #6D0000",
"& c #6F0000",
"* c #6C0902",
"= c #730000",
"- c #7A0000",
"; c #691C00",
": c #781104",
"> c #4B2100",
", c #732321",
"< c #870000",
"1 c #A11F1F",
"2 c #882B07",
"3 c #872E16",
"4 c #962015",
"5 c #902718",
"6 c #9F381A",
"7 c #B62C18",
"8 c #913227",
"9 c #C40201",
"0 c #D0372F",
"q c #8C4500",
"w c #8C6003",
"e c #836F09",
"r c #88710C",
"t c #8B7113",
"y c #967D11",
"u c #B85D3F",
"i c #D76502",
"p c #D76508",
"a c #DD660C",
"s c #FB7200",
"d c #FA7600",
"f c #FC7612",
"g c #DE463E",
"h c #E36725",
"j c #964541",
"k c #CF664B",
"l c #CC7E4B",
"z c #BE800E",
"x c #BEAC1B",
"c c #BFAF1E",
"v c #D18600",
"b c #FA8800",
"n c DarkOrange",
"m c #FF9B12",
"M c #FFA802",
"N c #FFBE00",
"B c #FFB810",
"V c #FF882E",
"C c #EB9026",
"Z c #FF8536",
"A c #C8B936",
"S c #D2C51B",
"D c #F3C10C",
"F c #E0D41F",
"G c #FFF50E",
"H c #FFE31A",
"J c #FFF620",
"K c #FFFF25",
"L c #FF8D48",
"P c #FF8B66",
"I c None",
/* pixels */
"IIIIIIIIIIIIIIII",
"IIIIIIIII4IIIIII",
"IIII68ulj,=9gIII",
"IIII>q#IIIII&kII",
"IIIIIIwIIIIII-II",
"IIIIIIIIxGNII+ZI",
"IIIIIizAcDvII;dI",
"IIIIIIIIIIIIIfnI",
"IIIIIIIIIIIIIabI",
"IIIIIytSJBmIIosI",
"IIIIIIIFKHMpI VI",
"IIIIIreIIIIII2II",
"IIXCIIIIIIII:3II",
"IIIO517hLP0<*III",
"IIIIIII.$&@IIIII",
"IIIIIIIIIIIIIIII"
};
