/* XPM */
static char *f50692d69bd547c5e58792c555ee40a9[] = {
/* columns rows colors chars-per-pixel */
"64 64 229 2 ",
"   c #010100",
".  c #0B0300",
"X  c #1C0100",
"o  c #160500",
"O  c #161E00",
"+  c #250000",
"@  c #2C0101",
"#  c #250C00",
"$  c #360101",
"%  c #3D0101",
"&  c #271601",
"*  c #3B1A01",
"=  c #3A3304",
"-  c #440101",
";  c #4C0000",
":  c #440909",
">  c #550202",
",  c #5B0202",
"<  c #580D08",
"1  c #481801",
"2  c #470712",
"3  c #5A1805",
"4  c #640603",
"5  c #730201",
"6  c #7C0200",
"7  c #770B09",
"8  c #70120C",
"9  c #482105",
"0  c #552601",
"q  c #433805",
"w  c #513C00",
"e  c #622505",
"r  c #7B2802",
"t  c #6D3507",
"y  c #752828",
"u  c #5F4702",
"i  c #764602",
"p  c #850201",
"a  c #8D0000",
"s  c #860C04",
"d  c #920000",
"f  c #9A0906",
"g  c #8B1508",
"h  c #9C1703",
"j  c #951815",
"k  c #8B1414",
"l  c #A40201",
"z  c #AC0200",
"x  c #AC080C",
"c  c #BD0303",
"v  c #B40B0B",
"b  c #B80808",
"n  c #A61703",
"m  c #B91905",
"M  c #BB1514",
"N  c #B91A1A",
"B  c #AC1016",
"V  c #862A02",
"C  c #9C2702",
"Z  c #8E3903",
"A  c #963602",
"S  c #B72902",
"D  c #A73602",
"F  c #B23802",
"G  c #A82504",
"H  c #83272B",
"J  c #AA2929",
"K  c #BB2828",
"L  c #B53634",
"P  c #C80604",
"I  c #D30302",
"U  c #DA0C04",
"Y  c #C51704",
"T  c #D61702",
"R  c #C41719",
"E  c #D71817",
"W  c #E31B10",
"Q  c #C82301",
"!  c #C93801",
"~  c #D73902",
"^  c #D32A02",
"/  c #E42B02",
"(  c #E53800",
")  c #FC3F01",
"_  c #D11A25",
"`  c #C72828",
"'  c #D73636",
"]  c #D63029",
"[  c #E52E38",
"{  c #9A5705",
"}  c #935109",
"|  c #B64803",
" . c #A65603",
".. c #B95805",
"X. c #A14600",
"o. c #9B6A04",
"O. c #976708",
"+. c #9B7B0C",
"@. c #9A730B",
"#. c #9A7E10",
"$. c #A56702",
"%. c #A07706",
"&. c #B87807",
"*. c #B76D0E",
"=. c #B25629",
"-. c #AC6927",
";. c #CB4805",
":. c #DB4A01",
">. c #DF450A",
",. c #C95603",
"<. c #D95907",
"1. c #DA5F1C",
"2. c #FC4601",
"3. c #E45200",
"4. c #E85B03",
"5. c #FA5603",
"6. c #E14D14",
"7. c #C96506",
"8. c #DB6406",
"9. c #C57805",
"0. c #D96512",
"q. c #DE7A0C",
"w. c #EB6C02",
"e. c #E66706",
"r. c #F46C03",
"t. c #F96903",
"y. c #EC7302",
"u. c #E47C06",
"i. c #FD7401",
"p. c #F27C02",
"a. c #FF7C04",
"s. c #F97607",
"d. c #F26F18",
"f. c #D65A34",
"g. c #F1782F",
"h. c #CB692D",
"j. c #923D46",
"k. c #C23E48",
"l. c #844146",
"z. c #B04848",
"x. c #BB5F73",
"c. c #AE6365",
"v. c #C24444",
"b. c #D65154",
"n. c #EA4549",
"m. c #F44E4F",
"M. c #E17E42",
"N. c #C05E7B",
"B. c #F65E60",
"V. c #CA6868",
"C. c #CB696F",
"Z. c #E7676A",
"A. c #F76969",
"S. c #F57676",
"D. c #998811",
"F. c #968A12",
"G. c #A1840C",
"H. c #BAA512",
"J. c #C9890A",
"K. c #D4930C",
"L. c #F58301",
"P. c #FE8500",
"I. c #FB8B01",
"U. c #FD8509",
"Y. c #FE8F0A",
"T. c #F58705",
"R. c #E89809",
"E. c #FF9401",
"W. c #FF9B02",
"Q. c #FE990B",
"!. c #F7960D",
"~. c #E39A12",
"^. c #FC9716",
"/. c #F28D0E",
"(. c #C9A814",
"). c #C9B818",
"_. c #CAA00F",
"`. c #FFA404",
"'. c #FFAB03",
"]. c #FDA20E",
"[. c #FEAB0A",
"{. c #F4AE0C",
"}. c #FEB40C",
"|. c #FEBB0C",
" X c #FDB905",
".X c #FEAC11",
"XX c #F2A911",
"oX c #FDB413",
"OX c #FDBC14",
"+X c #F3B712",
"@X c #E8A611",
"#X c #F4942A",
"$X c #EFB137",
"%X c #FFCC0C",
"&X c #FFC40A",
"*X c #FFD60A",
"=X c #FEC414",
"-X c #FECB13",
";X c #FECE19",
":X c #F3C717",
">X c #FFD214",
",X c #FFDB13",
"<X c #FDDB1B",
"1X c #F8D71C",
"2X c #E2CA17",
"3X c #FCE31D",
"4X c #FFEB1D",
"5X c #FFE714",
"6X c #FFF31C",
"7X c #FFFC1E",
"8X c #FFF615",
"9X c #FFE00E",
"0X c #FBCC30",
"qX c #FCED21",
"wX c #F1E420",
"eX c #FFF421",
"rX c #FFFF23",
"tX c #FDEC37",
"yX c #DECF25",
"uX c #F68E47",
"iX c #FFAF4C",
"pX c #FFC54C",
"aX c #FFFF56",
"sX c #FFEB5B",
"dX c #FFC475",
"fX c #D26D89",
"gX c #FF8787",
"hX c #F69099",
"jX c None",
/* pixels */
"jXjXjXjXjXjXjXjXjXjXjXjXjXjXjXjXjXjXjXjXjXjXjXjXjXjXjXjXjXjXjXjXjXjXjXjXjXjXjXjXjXjXjXjXjXjXjXjXjXjXjXjXjXjXjXjXjXjXjXjXjXjXjXjX",
"jXjXjXjXjXjXjXjXjXjXjXjXjXjXjXjXjXjXjXjXjXjXjXjXjXjXjXjXjXjXjXjXjXjXjXjXjXjXjXjXjXjXjXjXjXjXjXjXjXjXjXjXjXjXjXjXjXjXjXjXjXjXjXjX",
"jXjXjXjXjXjXjXjXjXjXjXjXjXjXjXjXjXjXjXjXjXjXjXjXjXjXjXjXjXjXjXjXjXjXjXjXjXjXjXjXjXjXjXjXjXjXjXjXjXjXjXjXjXjXjXjXjXjXjXjXjXjXjXjX",
"jXjXjXjXjXjXjXjXjXjXjXjXjXjXjXjXjXjXjXjXjXjXjXjXjXjXjXjXjXjXjXjXjXjXjXjXjXjXjXjXjXjXjXjXjXjXjXjXjXjXjXjXjXjXjXjXjXjXjXjXjXjXjXjX",
"jXjXjXjXjXjXjXjXjXjXjXjXjXjXjXjXjXjXjXjXjXjXjXjXjXjXjXjXjXjXjXjXjXjXjXjXjXjXjXjXjXjXjXjXjXjXjXjXjXjXjXjXjXjXjXjXjXjXjXjXjXjXjXjX",
"jXjXjXjXjXjXjXjXjXjXjXjXjXjXjXjXjXjXjXjXjXjXjXjXjXjXjXjXjXjXjXjXf R v x ' J jXjXjXjXjXjXjXjXjXjXjXjXjXjXjXjXjXjXjXjXjXjXjXjXjXjX",
"jXjXjXjXjXjXjXjXjXjXjXjXjXjXjXjXjXjXjXjXjXjXjXjXjXjXjXjX, p a d d d h S m v x R ` L v.jXjXjXjXjXjXjXjXjXjXjXjXjXjXjXjXjXjXjXjXjX",
"jXjXjXjXjXjXjXjXjXjXjXjXjXjXjXjXjXjXjXjXjXjXjXjXjXjXjX+ @ jXjXjXjXjX. & w i A B N _ N x N v.jXjXjXjXjXjXjXjXjXjXjXjXjXjXjXjXjXjX",
"jXjXjXjXjXjXjXjXjXjXjXjX5 v ' jXjXjXjXy jXjXjXjXjXjXjXjXjXjXjXjXjXjXjXjXjXjXO # , f _ ' m z v v.jXjXjXjXjXjXjXjXjXjXjXjXjXjXjXjX",
"jXjXjXjXjXjXjXjXjXjXjXjXjXX p c 7 b.jX  4 l s B f.uXdXsXaXaXpXg.;.L L jXjXjXjXjXjX. ; M ` N v z v jXjXjXjXjXjXjXjXjXjXjXjXjXjXjX",
"jXjXjXjXjXjXjXjXjXjXjXjXjXjX  a / 6 ] jXjX6 v j p f n D X.A g f j B J J L ' m.' J 8 % 5 R R N M b z ` jXjXjXjXjXjXjXjXjXjXjXjXjX",
"jXjXjXjXjXjXjXjXjXjXjXjXjXjXjX  G 4.V 6.jXjX2 k.Z.C.x.x.N.fXhXhXhXhXS.B.m.' ] ` _ E E P P E E R m b z Y jXjXjXjXjXjXjXjXjXjXjXjX",
"jXjXjXjXjXjXjXjXjXjXjXjXjXjXjXjX  ;.U.} 7.*.u @ 2 l.c.C.C.V.z.z.k k 7 , ; $ jXjXjX+ @ - , 6 f Y W Q m d z jXjXjXjXjXjXjXjXjXjXjX",
"jXjXjXjXjXjXjXjXjXjXjXjXjXjXjXjXjX  ..^.9.*.q.{ 0 @ X + jXjXjXjXjXjXjXjXjXjXjXjXjXjXjXjXjXjXjXX 4 m / Q 5 6 jXjXjXjXjXjXjXjXjXjX",
"jXjXjXjXjXjXjXjXjXjXjXjXjXjXjXjXjXjX  t /.#Xq.0.4.~ S f 7 jXjXjXjXjXjXjXjXjXjXjXjXjXjXjXjXjXjXjXjX. 7 ^ ( , ; jXjXjXjXjXjXjXjXjX",
"jXjXjXjXjXjXjXjXjXjXjXjXjXjXjXjXjXjXjXjXjX* t Z t e 3 jXjXjXjXjXjXjXjXjXjXjXjXjXjXjXjXjXjXjXjXjXjXjX. 6 S ) - jXjXjXjXjXjXjXjXjX",
"jXjXjXjXjXjXjXjXjXjXjXjXjXjXjXjXjXjXjXjXjXjXjXjXjXjXjXjXjXjXjXjXjXjXjXjXjXjXjXjXjXjXjXjXjXjXjXjXjXjXjX$ p S 2.3 jXjXjXjXjXjXjXjX",
"jXjXjXjXjXjXjXjXjXjXjXjXjXjXjXjXjXjXjXjXjXjXjXjXjXjXjXjXjXjXjXjXjXjXjXjXjXjXjXjXjXjXjXjXjXjXjXjXjXjXjXjXg G ! / jXjXjXjXjXjXjXjX",
"jXjXjXjXjXjXjXjXjXjXjXjXjXjXjXjXjXjXjXjXjXjXjXO.~.9.J._.(.(.).).).).(.(._._.K.J.@XpXjXjXjXjXjXjXjXjXjXjX& F C ( >.jXjXjXjXjXjXjX",
"jXjXjXjXjXjXjXjXjXjXjXjXjXjXjXjXjXjXjXjXjXjX# Q.OX=X;X<XqXrXrXrXrX7X6X4X,X,X-X%X'.E.Q.^.jXjXjXjXjXjXjXjXjX} | ;.^ M.jXjXjXjXjXjX",
"jXjXjXjXjXjXjXjXjXjXjXjXjXjXjXjXjXjXjXjXjXjX. *.].].oXOX;X;XwXqX3XeX4X;X-X=X X}.[.`.W.P.!.jXjXjXjXjXjXjXjXi 7.F 3.~ jXjXjXjXjXjX",
"jXjXjXjXjXjXjXjXjXjXjXjXjXjXjXjXjXjXjXjXjXjXjXjXjXjXjXjXjXjXjXjXjXq 2X5X-X=X|.}.[.`.W.W.E.#XjXjXjXjXjXjXjX0 ,.| 5.:.0.jXjXjXjXjX",
"jXjXjXjXjXjXjXjXjXjXjXjXjXjXjXjXjXjXjXjXjXjXjXjXjXjXjXjXjXjXjXjXjXjX= 6X-X=XOX}.[.`.W.W.`.u.jXjXjXjXjXjXjX* | | t.,.F jXjXjXjXjX",
"jXjXjXjXjXjXjXjXjXjXjXjXjXjXjXjXjXjXjXjXjXjXjXjXjXjXjXjXjXjXjXjXjXjX& 4X-X=X|.}.[.`.W.E.'.u.jXjXjXjXjXjXjX1 D | r.r.V jXjXjXjXjX",
"jXjXjXjXjXjXjXjXjXjXjXjXjXjXjXjXjXjXjXjXjXjXjXjXjXjXjXjXjXjXjXjXjXjXH.6X-XOX|.}.[.`.W.E.W.$XjXjXjXjXjXjXjX% C <.4.r.<.jXjXjXjXjX",
"jXjXjXjXjXjXjXjXjXjXjXjXjXjXjXjXjXjXjXZ w.e.y.u./.~.~.@X:XtXtXtXyX2X6X-X-X&X|.}.'.'.W.'.W.jXjXjXjXjXjXjXjX@ S s.8.w.i.0.jXjXjXjX",
"jXjXjXjXjXjXjXjXjXjXjXjXjXjXjXjXjXjX# a.a.a.Q.Q.[.OX-X1X,X9X8X8XrXrX5X3X,X>X-X|. X X XR.jXjXjXjXjXjXjXjXjX- 4.r.w.y.y.t.jXjXjXjX",
"jXjXjXjXjXjXjXjXjXjXjXjXjXjXjXjXjXjX. | r.r.p.T.!.!.XX+X:X:X1XwXwX1X:X:X:X+X{.{.@XJ.} jXjXjXjXjXjXjXjXjXjXA s.e.y.p.p.w.#XjXjXjX",
"jXjXjXjXjXjXjXjXjXjXjXjXjXjXjXjXjXjXjXjXjXjXjXjXjXjXjXjXjXjXjXjXjXjXjXjXjXjXjXjXjXjXjXjXjXjXjXjXjXjXjXjX# s.d.e.y.L.L.p.y.jXjXjX",
"jXjXjXjXjXjXjXjXjXjXjXjXjXjXjXjXjXjXjXjXjXjXjXjXjXjXjXjXjXjXjXjXjXjXjXjXjXjXjXjXjXjXjXjXjXjXjXjXjXjXjXjXd.d.<.w.p.L.L.L.r.jXjXjX",
"jXjXjXjXjXjXjXjXjXjXjXjXjXjXjXjXjXjXjXjXjXjXjXjXjXjXjXjXjXjXjXjXjXjXjXjXjXjXjXjXjXjXjXjXjXjXjXjXjXjXjX0.g.1.8.y.p.I.I.I.T.^.jXjX",
"jXjXjXjXjXjXjXjXjXjXjXjXjXjXjXjXjXjXjXjXjXjXjXjXjXjXjXjXjXjXjXjXjXjXjXjXjXjXjXjXjXjXjXjXjXjXjXjXjX# t.uXf.1.e.y.L.T.E.E.I.^.jXjX",
"jXjXjXjXjXjXjXjXjXjXjXjXjXjXjXjXjXjXjXjXjXjXjXjXjXjXjXjXjXjXjXjXjXjXjXjXjXjXjXjXjXjXjXjXjXjXjXjXjXjX9 0.g.1.y.y.p.I.E.E.P.jXjXjX",
"jXjXjXjXjXjXjXjXjXjXjXjXjXjXjXjXjXjXjXjXjXjXjXjXjXjXjXjXjXjXjXjXjXjXjXjXjXjXjXjXjXjXjXjXjXjXjXjXjXjXjX  8.d.0.s.p.I.E.I.0XjXjXjX",
"jXjXjXjXjXjXjXjXjXjXjXjXjXjXjXjXjXjXjXjXjXjXjXjXjXjXjXjXjXjXjXjXjXjXjXjXjXjXjXjXjXjXjXjXjXjXjXjXjXjXjXjXo y.d.y.p.T.I.`.jXjXjXjX",
"jXjXjXjXjXjXjXjXjXjXjXjXjXjXjXjXjXjXjXjXjXjXjXjXjXjXjXjXjXjXjXjXjXjXjXjXjXjXjXjXjXjXjXjXjXjXjXjXjXjXjXjXjXe a.e.p.L.E.7.X jXjXjX",
"jXjXjXjXjXjXjXjXjXjXjXjXjXjXjXjXjXjXK. X|.|.=X-X-X,X>X<X3X4X4XeXeXqX3X1X;X=XOXoX[.Q.Y.#XjXjXjXjXjXjXjXjXjX  8.r.y.p.E.9 { jXjXjX",
"jXjXjXjXjXjXjXjXjXjXjXjXjXjXjXjXjX& &X*X%X*X,X9X5X6X8X7XrX4X4XeXeXqX<X1X-X=XOX.X].Q.P.a.i.jXjXjXjXjXjXjXjXjXZ a.y.P. .V iXjXjXjX",
"jXjXjXjXjXjXjXjXjXjXjXjXjXjXjXjXjXjXu %.$.%.%.%.+.G.G.G.(.6X4XqXqX<X<X;X=XOXoX.X].Q.Y.U.a.5.jXjXjXjXjXjXjXjXe a.r.8. .i.jXjXjXjX",
"jXjXjXjXjXjXjXjXjXjXjXjXjXjXjXjXjXjXjXjXjXjXjXjXjXjXjXjXjXF.rX4XtX3X<X;X=XOXoX.X].Q.Y.U.a.i.d.jXjXjXjXjXjXjX9 t.w.8.r.p.jXjXjXjX",
"jXjXjXjXjXjXjXjXjXjXjXjXjXjXjXjXjXjXjXjXjXjXjXjXjXjXjXjXjX  4XeXqX3X<X;X=XOXoX.X].Q.Y.U.a.a.5.jXjXjXjXjXjXjX* t.e.w.3.uXjXjXjXjX",
"jXjXjXjXjXjXjXjXjXjXjXjXjXjXjXjXjXjXjXjXjXjXjXjXjXjXjXjXjX= rXeXqX3X1X;X;XOXoX.X^.Q.Y.U.a.a.3.jXjXjXjXjXjXjX* t.4.4.3.jXjXjXjXjX",
"jXjXjXjXjXjXjXjXjXjXjXjXjXjXjXjXjXjXjXjXjXjXjXjXjXjXjXjXjX2XrX4XqX3X<X;X=XOXoX.X].Q.Y.U.a.i.iXjXjXjXjXjXjXjX9 5.<.:.#XjXjXjXjXjX",
"jXjXjXjXjXjXjXjXjXjXjXjXjXjXjXjX}  X`.`.'.}. X|.=X-X-X,X6X6X3XqXqX3X1X;X=XOXoX.X].Q.Y.Y.Q.<.jXjXjXjXjXjXjXjXe 5.:.3.jXjXjXjXjXjX",
"jXjXjXjXjXjXjXjXjXjXjXjXjXjXjXjX9.*X X&X%X*X*X,X5X5X8X8XrXrXrXrXrXrXrXeX3X<X;X-XOXoX.XI.{ jXjXjXjXjXjXjXjXjXV 5.2.h.jXjXjXjXjXjX",
"jXjXjXjXjXjXjXjXjXjXjXjXjXjXjXjX# o.o.o.o.@.@.@.+.+.#.D.D.D.F.F.F.F.D.D.#.@.@.O.O.{ i jXjXjXjXjXjXjXjXjXjXjX! 5.;.jXjXjXjXjXjXjX",
"jXjXjX+ ; p P U ] jXjXjXjXjXjXjXjXjXjXjXjXjXjXjXjXjXjXjXjXjXjXjXjXjXjXjXjXjXjXjXjXjXjXjXjXjXjXjXjXjXjXjXjX1 2.5.jXjXjXjXjXjXjXjX",
"jXjXjXjXjXjXX 5 Y ) ,.Z H jXjXjXjXjXjXjXjXjXjXjXjXjXjXjXjXjXjXjXjXjXjXjXjXjXjXjXjXjXjXjXjXjXjXjXjXjXjXjXjX^ 2.jXjXjXjXjXjXjXjXjX",
"jXjXjXjXjXjXjXjXX V d.Q.&.r =.jXjXjXjXjXjXjXjXjXjXjXjXjXjXjXjXjXjXjXjXjXjXjXjXjXjXjXjXjXjXjXjXjXjXjXjXjXC 2.< jXjXjXjXjXjXjXjXjX",
"jXjXjXjXjXjXjXjXjXjX& ..OX-Xo.{ $XjXjXjXjXjXjXjXjXjXjXjXjXjXjXjXjXjXjXjXjXjXjXjXjXjXjXjXjXjXjXjXjXjXjXs ( 7 4 jXjXjXjXjXjXjXjXjX",
"jXjXjXjXjXjXjXjXjXjXjXjXq ~.,XR. . .=.jXjXjXjXjXjXjXjXjXjXjXjXjXjXjXjXjXjXjXjXjXjXjXjXjXjXjXjXjXjXjXs Q C h jXjXjXjXjXjXjXjXjXjX",
"jXjXjXjXjXjXjXjXjXjXjX8 jXjXq &.~...D h f 7 H jXjXjXjXjXjXjXjXjXjXjXjXjXjXjXjXjXjXjXjXjXjXjXjXjX- n Q Q Y jXjXjXjXjXjXjXjXjXjXjX",
"jXjXjXjXjXjXjXjXjXjXjXX v R jXjXjX9 y e 3 % @ jXjXjXV <.q.7.^.pXjXjXjXjXjXjXjXjXjXjXjXjXjXjX- p Y T T m jXjXjXjXjXjXjXjXjXjXjXjX",
"jXjXjXjXjXjXjXjXjXjXjXjX  s m.Z.j.< ; > 4 5 a x Q ~ :.,.7.q.9.9.9.&.J.*.-.-.jXjXjXjX8 4 5 d b P U U 6 jXjXjXjXjXjXjXjXjXjXjXjXjX",
"jXjXjXjXjXjXjXjXjXjXjXjXjXjX$ z.S.gXZ.V.z.J j j g k g k k k j j j k f p a d d d a a l z c P I I l jXjXjXjXjXjXjXjXjXjXjXjXjXjXjX",
"jXjXjXjXjXjXjXjXjXjXjXjXjXjXjXjXo 8 z.C.Z.A.A.B.m.m.n.[ [ [ _ _ R B B R R R M M b c b c P I z > jXjXjXjXjXjXjXjXjXjXjXjXjXjXjXjX",
"jXjXjXjXjXjXjXjXjXjXjXjXjXjXjXjXjXjXjXjXX $ ; < < 8 < < 2 $ jX$ - > a R K N M v P P I P a ; jXjXjXjXjXjXjXjXjXjXjXjXjXjXjXjXjXjX",
"jXjXjXjXjXjXjXjXjXjXjXjXjXjXjXjXjXjXjXjXjXjXjXjXjXjXjXjXjX, 6 f b E W _ E U P c l p , jXjXjXjXjXjXjXjXjXjXjXjXjXjXjXjXjXjXjXjXjX",
"jXjXjXjXjXjXjXjXjXjXjXjXjXjXjXjXjXjXjXjXjXjXjXjXjXjXjXjX% ; , , , < , , > ; $ jXjXjXjXjXjXjXjXjXjXjXjXjXjXjXjXjXjXjXjXjXjXjXjXjX",
"jXjXjXjXjXjXjXjXjXjXjXjXjXjXjXjXjXjXjXjXjXjXjXjXjXjXjXjXjXjXjXjXjXjXjXjXjXjXjXjXjXjXjXjXjXjXjXjXjXjXjXjXjXjXjXjXjXjXjXjXjXjXjXjX",
"jXjXjXjXjXjXjXjXjXjXjXjXjXjXjXjXjXjXjXjXjXjXjXjXjXjXjXjXjXjXjXjXjXjXjXjXjXjXjXjXjXjXjXjXjXjXjXjXjXjXjXjXjXjXjXjXjXjXjXjXjXjXjXjX",
"jXjXjXjXjXjXjXjXjXjXjXjXjXjXjXjXjXjXjXjXjXjXjXjXjXjXjXjXjXjXjXjXjXjXjXjXjXjXjXjXjXjXjXjXjXjXjXjXjXjXjXjXjXjXjXjXjXjXjXjXjXjXjXjX",
"jXjXjXjXjXjXjXjXjXjXjXjXjXjXjXjXjXjXjXjXjXjXjXjXjXjXjXjXjXjXjXjXjXjXjXjXjXjXjXjXjXjXjXjXjXjXjXjXjXjXjXjXjXjXjXjXjXjXjXjXjXjXjXjX",
"jXjXjXjXjXjXjXjXjXjXjXjXjXjXjXjXjXjXjXjXjXjXjXjXjXjXjXjXjXjXjXjXjXjXjXjXjXjXjXjXjXjXjXjXjXjXjXjXjXjXjXjXjXjXjXjXjXjXjXjXjXjXjXjX"
};
