/* XPM */
static char *_528b111964c4869dd213400f4b2cb18[] = {
/* columns rows colors chars-per-pixel */
"32 32 175 2 ",
"   c #350804",
".  c #391A05",
"X  c #2A2201",
"o  c #3D3204",
"O  c #420000",
"+  c #4C0201",
"@  c #4C0C08",
"#  c #570503",
"$  c #471B01",
"%  c #461117",
"&  c #56180B",
"*  c #650301",
"=  c #760402",
"-  c #7E0001",
";  c #78000A",
":  c #741100",
">  c #620912",
",  c #4C2101",
"<  c #412F05",
"1  c #413106",
"2  c #692704",
"3  c #792D00",
"4  c #6F3F06",
"5  c #733104",
"6  c #7C3410",
"7  c #5B1B28",
"8  c #7A0D22",
"9  c #7E4C03",
"0  c #6C5D0C",
"q  c #786302",
"w  c #8C0D01",
"e  c #8E0106",
"r  c #9A0700",
"t  c #851B03",
"y  c #971C1C",
"u  c #A90100",
"i  c #A70500",
"p  c #BB0806",
"a  c #AD1A00",
"s  c #BC1401",
"d  c #B80D11",
"f  c #BA1816",
"g  c #8A2202",
"h  c #832F02",
"j  c #982004",
"k  c #823A08",
"l  c #9C3301",
"z  c #812615",
"x  c #87381C",
"c  c #A23402",
"v  c #A22111",
"b  c #B62C1C",
"n  c #822E37",
"m  c #952935",
"M  c #803A3F",
"N  c #9C3D33",
"B  c #AF292B",
"V  c #CB0200",
"C  c #C50608",
"Z  c #CD1A00",
"A  c #DA120D",
"S  c #D6151A",
"D  c #E40500",
"F  c #C03100",
"G  c #DA3300",
"H  c #C12610",
"J  c #E43F00",
"K  c #CD3022",
"L  c #D6312B",
"P  c #CE3639",
"I  c #D83335",
"U  c #974803",
"Y  c #92550B",
"T  c #B94600",
"R  c #A95E08",
"E  c #BE5700",
"W  c #8A630C",
"Q  c #9C6700",
"!  c #A06B0E",
"~  c #B16C07",
"^  c #B77500",
"/  c #A6611A",
"(  c #C84B01",
")  c #C85503",
"_  c #D54E17",
"`  c #D25E19",
"'  c #E05B00",
"]  c #FB5900",
"[  c #CC7500",
"{  c #D37E13",
"}  c #E56504",
"|  c #F56D03",
" . c #FE6B00",
".. c #FB6400",
"X. c #F27E00",
"o. c #FE7903",
"O. c #FA7405",
"+. c #E76612",
"@. c #FE7311",
"#. c #C86C26",
"$. c #D67127",
"%. c #FA6123",
"&. c #FF7F2C",
"*. c #E56930",
"=. c #9D2D48",
"-. c #8D3040",
";. c #A33F48",
":. c #BD4043",
">. c #DF5457",
",. c #C74749",
"<. c #E74548",
"1. c #E4544B",
"2. c #F07C51",
"3. c #90860B",
"4. c #BC8500",
"5. c #B79B0B",
"6. c #B5A711",
"7. c #C58807",
"8. c #C79502",
"9. c #D99E0A",
"0. c #C69C13",
"q. c #FE8402",
"w. c #FF8C02",
"e. c #FE8E0B",
"r. c #F68A00",
"t. c #FE9200",
"y. c #FF9D02",
"u. c #FF990E",
"i. c #FF940F",
"p. c #F89A15",
"a. c #C9A206",
"s. c #C6AC17",
"d. c #DFAC11",
"f. c #C9BA19",
"g. c #ECA708",
"h. c #FEA20D",
"j. c #FFAA0C",
"k. c #FFB401",
"l. c #FFBC0D",
"z. c #F1B30D",
"x. c #F9A712",
"c. c #EFB912",
"v. c #FEB612",
"b. c #FFBD14",
"n. c #FE923C",
"m. c #FFAE2C",
"M. c #E6A535",
"N. c #FFB737",
"B. c #FFCC0D",
"V. c #F9DC0B",
"C. c #E7C81A",
"Z. c #FDC312",
"A. c #FDC718",
"S. c #FFCE18",
"D. c #F3D21A",
"F. c #FEDA1C",
"G. c #FFD510",
"H. c #FFE21C",
"J. c #FFEB1A",
"K. c #FBE71A",
"L. c #FFFB1D",
"P. c #FFF719",
"I. c #FCEA20",
"U. c #FFF320",
"Y. c #FFFD23",
"T. c #FFF12D",
"R. c #FFF333",
"E. c #FFFF3C",
"W. c #E5864C",
"Q. c #F4984C",
"!. c #F58351",
"~. c #E4AA4B",
"^. c #F4A04E",
"/. c #FFA769",
"(. c None",
/* pixels */
"(.(.(.(.(.(.(.(.(.(.(.(.(.(.(.(.(.(.(.(.(.(.(.(.(.(.(.(.(.(.(.(.",
"(.(.(.(.(.(.(.(.(.(.(.(.(.(.(.(.(.(.(.(.(.(.(.(.(.(.(.(.(.(.(.(.",
"(.(.(.(.(.(.(.(.(.(.(.(.(.(.(.(.(.(.(.(.(.(.(.(.(.(.(.(.(.(.(.(.",
"(.(.(.(.(.(.(.(.(.(.(.(.(.(.(.(.@ & 2 g f I (.(.(.(.(.(.(.(.(.(.",
"(.(.(.(.(.(.(.y (.(.7 >.(.(.(.(.(.(.(.(.@ - C d ,.(.(.(.(.(.(.(.",
"(.(.(.(.(.(.(.(.r _   O B !.Q.2.1.<.<.P y = d A V f (.(.(.(.(.(.",
"(.(.(.(.(.(.(.(.(.) i.! x m =.-.-.(.(.(.(.(.(.@ w V i (.(.(.(.(.",
"(.(.(.(.(.(.(.(.(.(.4 R 3 O (.(.(.(.(.(.(.(.(.(.(.@ C g (.(.(.(.",
"(.(.(.(.(.(.(.(.(.(.(.(.(.(.(.(.(.(.(.(.(.(.(.(.(.(.: Z (.(.(.(.",
"(.(.(.(.(.(.(.(.(.(.(.(.x.Z.F.U.Y.D.d.9.x.N.(.(.(.(.(.F %.(.(.(.",
"(.(.(.(.(.(.(.(.(.(.(.(.9 W q q 3.D.J.G.k.w.u.(.(.(.(.U G W.(.(.",
"(.(.(.(.(.(.(.(.(.(.(.(.(.(.(.(.(.X P.l.j.y.y.(.(.(.(.k ..T (.(.",
"(.(.(.(.(.(.(.(.(.(.(.(.(.(.(.(.(.5.J.B.l.k.y.(.(.(.(.g o.( (.(.",
"(.(.(.(.(.(.(.(.(.(. .q.u.v.Z.V.L.J.c.z.g.^ (.(.(.(.(.( o.| ^.(.",
"(.(.(.(.(.(.(.(.(.(.(.(.(.(.(.(.(.(.(.(.(.(.(.(.(.(.6 @.| r.q.(.",
"(.(.(.(.(.(.(.(.(.(.(.(.(.(.(.(.(.(.(.(.(.(.(.(.(.5 &.+.r.t.t.(.",
"(.(.(.(.(.(.(.(.(.(.(.(.(.(.(.(.(.(.(.(.(.(.(.(.(.. ` @.X.y.p.(.",
"(.(.(.(.(.(.(.(.(.(.(.(.(.(.(.(.(.(.(.(.(.(.(.(.(.(.(.} q.r.Y (.",
"(.(.(.(.(.(.(.(.(.^ V.B.G.J.L.U.I.F.A.v.h.e.n.(.(.(.(.k w.E / (.",
"(.(.(.(.(.(.(.(.(.(.o 1 1 o 0 I.Y.H.S.b.j.w. .$.(.(.(., o.' (.(.",
"(.(.(.(.(.(.(.(.(.(.(.(.(.(.(.6.Y.F.A.v.h.e.q...(.(.(.$ ] | (.(.",
"(.(.(.(.(.(.(.(.(.T.R.R.E.E.C.Y.Y.Y.F.A.v.j.q.(.(.(.(., ] /.(.(.",
"(.(.(.(.(.(.(.(., 4.7.7.8.9.C.f.f.s.0.0.7.~ (.(.(.(.(.l J (.(.(.",
"(.(.(.* H *.(.(.(.(.(.(.(.(.(.(.(.(.(.(.(.(.(.(.(.(.(.G (.(.(.(.",
"(.(.(.(.(.h [ m.(.(.(.(.(.(.(.(.(.(.(.(.(.(.(.(.(.(.a j (.(.(.(.",
"(.(.(.(.(.(.6 Q R #.(.(.(.(.(.(.(.(.(.(.(.(.(.(.(.s s (.(.(.(.(.",
"(.(.(.(.(.(.  8 N z # + = c ) 7.M.~.(.(.(.(.(.- D s (.(.(.(.(.(.",
"(.(.(.(.(.(.(.(.n ;.:.P L K b v w r u u u V D V * (.(.(.(.(.(.(.",
"(.(.(.(.(.(.(.(.(.(.(.(.(.% > ; e d S C p e (.(.(.(.(.(.(.(.(.(.",
"(.(.(.(.(.(.(.(.(.(.(.(.(.(.(.(.(.(.(.(.(.(.(.(.(.(.(.(.(.(.(.(.",
"(.(.(.(.(.(.(.(.(.(.(.(.(.(.(.(.(.(.(.(.(.(.(.(.(.(.(.(.(.(.(.(.",
"(.(.(.(.(.(.(.(.(.(.(.(.(.(.(.(.(.(.(.(.(.(.(.(.(.(.(.(.(.(.(.(."
};
